<svg id="svg" version="1.1" xmlns="http://www.w3.org/2000/svg" xmlns:xlink="http://www.w3.org/1999/xlink" width="400" height="76.16511318242344" viewBox="0, 0, 400,76.16511318242344"><g id="svgg"><path id="path0" d="M273.177 3.945 C 272.515 4.408,273.049 5.420,273.846 5.212 C 274.185 5.123,274.432 4.497,274.282 4.107 C 274.149 3.761,273.563 3.675,273.177 3.945 M267.276 5.305 C 267.124 5.472,267.000 5.770,267.000 5.967 C 267.000 6.406,266.184 6.885,265.823 6.657 C 265.499 6.452,264.552 6.460,264.156 6.673 C 263.391 7.082,263.921 8.833,264.809 8.833 C 265.169 8.833,265.667 9.334,265.667 9.696 C 265.667 10.676,263.835 10.701,262.867 9.733 C 262.262 9.129,261.976 9.137,261.689 9.767 C 261.344 10.526,261.447 10.916,262.042 11.091 C 263.065 11.392,262.771 12.833,261.687 12.833 C 259.882 12.833,260.124 15.918,261.972 16.472 C 263.511 16.933,264.407 16.242,264.740 14.337 C 265.017 12.748,265.061 12.667,265.643 12.667 C 267.271 12.667,266.611 16.726,264.830 17.665 C 264.603 17.785,264.369 17.956,264.311 18.045 C 264.253 18.134,263.525 18.245,262.694 18.293 L 261.182 18.379 261.424 18.848 C 261.558 19.106,261.667 19.437,261.667 19.583 C 261.667 19.933,262.496 20.655,262.906 20.661 C 263.482 20.671,264.664 21.347,264.762 21.724 C 265.052 22.840,267.214 23.221,268.224 22.334 L 268.833 21.799 268.833 13.599 C 268.833 7.444,268.783 5.350,268.633 5.200 C 268.334 4.901,267.589 4.959,267.276 5.305 M278.472 6.958 C 277.994 7.524,278.575 8.248,279.294 7.982 C 279.663 7.845,279.765 7.451,279.566 6.930 C 279.430 6.578,278.779 6.595,278.472 6.958 M280.374 13.360 C 279.897 13.837,280.322 14.574,281.015 14.471 C 281.522 14.396,281.803 13.921,281.566 13.542 C 281.341 13.184,280.655 13.079,280.374 13.360 M25.333 15.667 C 25.333 16.000,25.417 16.167,25.583 16.167 C 25.757 16.167,25.833 16.341,25.833 16.738 C 25.833 17.052,25.946 17.422,26.083 17.560 C 26.221 17.697,26.333 18.040,26.333 18.321 C 26.333 18.643,26.418 18.833,26.561 18.833 C 26.703 18.833,26.825 19.098,26.884 19.536 C 26.935 19.922,27.095 20.324,27.239 20.429 C 27.383 20.534,27.500 20.818,27.500 21.060 C 27.500 21.340,27.591 21.500,27.750 21.500 C 27.935 21.500,28.000 21.695,28.000 22.255 C 28.000 22.773,28.079 23.041,28.250 23.106 C 28.390 23.160,28.500 23.408,28.500 23.673 C 28.500 23.931,28.613 24.255,28.750 24.393 C 28.887 24.530,29.000 24.876,29.000 25.160 C 29.000 25.466,29.102 25.716,29.250 25.773 C 29.387 25.826,29.501 26.030,29.502 26.226 C 29.506 26.846,29.697 27.333,29.936 27.333 C 30.082 27.333,30.167 27.520,30.167 27.839 C 30.167 28.134,30.271 28.384,30.417 28.440 C 30.586 28.505,30.667 28.771,30.667 29.268 C 30.667 29.808,30.732 30.000,30.917 30.000 C 31.081 30.000,31.167 30.164,31.167 30.480 C 31.167 30.743,31.279 31.053,31.417 31.167 C 31.560 31.286,31.667 31.649,31.667 32.020 C 31.667 32.484,31.737 32.667,31.917 32.667 C 32.064 32.667,32.168 32.820,32.169 33.042 C 32.173 33.678,32.361 34.167,32.603 34.167 C 32.755 34.167,32.833 34.364,32.833 34.750 C 32.833 35.157,32.909 35.333,33.083 35.333 C 33.269 35.333,33.333 35.528,33.333 36.083 C 33.333 36.639,33.398 36.833,33.583 36.833 C 33.758 36.833,33.833 37.009,33.833 37.417 C 33.833 37.824,33.909 38.000,34.083 38.000 C 34.269 38.000,34.333 38.194,34.333 38.750 C 34.333 39.306,34.398 39.500,34.583 39.500 C 34.758 39.500,34.833 39.676,34.833 40.085 C 34.833 40.464,34.951 40.771,35.167 40.955 C 35.353 41.115,35.500 41.447,35.500 41.709 C 35.500 41.971,35.610 42.219,35.750 42.273 C 35.913 42.336,36.000 42.595,36.000 43.023 C 36.000 43.451,36.087 43.710,36.250 43.773 C 36.393 43.828,36.500 44.076,36.500 44.351 C 36.500 44.669,36.585 44.833,36.750 44.833 C 36.935 44.833,37.000 45.028,37.000 45.589 C 37.000 46.106,37.079 46.374,37.250 46.440 C 37.388 46.493,37.500 46.740,37.500 46.992 C 37.500 47.243,37.650 47.584,37.833 47.750 C 38.040 47.937,38.167 48.263,38.167 48.609 C 38.167 48.994,38.244 49.167,38.417 49.167 C 38.602 49.167,38.667 49.361,38.667 49.917 C 38.667 50.472,38.731 50.667,38.917 50.667 C 39.091 50.667,39.167 50.843,39.167 51.250 C 39.167 51.657,39.242 51.833,39.417 51.833 C 39.602 51.833,39.667 52.028,39.667 52.583 C 39.667 53.139,39.731 53.333,39.917 53.333 C 40.091 53.333,40.167 53.509,40.167 53.917 L 40.167 54.500 35.167 54.500 L 30.167 54.500 30.167 55.161 C 30.167 55.651,30.081 55.868,29.833 56.000 C 29.628 56.110,29.498 56.353,29.495 56.631 C 29.492 56.880,29.379 57.229,29.245 57.407 C 29.110 57.585,29.000 57.979,29.000 58.282 C 29.000 58.661,28.922 58.833,28.750 58.833 C 28.565 58.833,28.500 59.028,28.500 59.583 C 28.500 60.139,28.435 60.333,28.250 60.333 C 28.061 60.333,28.000 60.537,28.000 61.167 C 28.000 61.796,27.939 62.000,27.750 62.000 C 27.566 62.000,27.500 62.192,27.500 62.731 C 27.500 63.321,27.436 63.478,27.167 63.548 C 26.901 63.618,26.833 63.776,26.833 64.323 C 26.833 64.780,26.750 65.043,26.583 65.106 C 26.322 65.207,26.268 65.654,26.438 66.292 L 26.539 66.667 35.781 66.667 C 45.914 66.667,45.500 66.624,45.500 67.660 C 45.500 67.966,45.602 68.216,45.750 68.273 C 45.887 68.326,46.001 68.530,46.002 68.726 C 46.006 69.346,46.197 69.833,46.436 69.833 C 46.587 69.833,46.667 70.028,46.667 70.399 C 46.667 70.748,46.762 71.001,46.917 71.060 C 47.082 71.124,47.167 71.385,47.167 71.828 L 47.167 72.500 57.500 72.500 L 67.833 72.500 67.833 72.000 C 67.833 71.667,67.750 71.500,67.583 71.500 C 67.417 71.500,67.333 71.333,67.333 71.000 C 67.333 70.667,67.250 70.500,67.083 70.500 C 66.898 70.500,66.833 70.305,66.833 69.745 C 66.833 69.227,66.755 68.959,66.583 68.894 C 66.441 68.839,66.333 68.590,66.333 68.316 C 66.333 67.998,66.248 67.833,66.083 67.833 C 65.922 67.833,65.833 67.670,65.831 67.375 C 65.828 66.661,65.650 66.167,65.397 66.167 C 65.252 66.167,65.167 65.981,65.167 65.667 C 65.167 65.333,65.083 65.167,64.917 65.167 C 64.731 65.167,64.667 64.972,64.667 64.411 C 64.667 63.894,64.588 63.626,64.417 63.560 C 64.274 63.506,64.167 63.257,64.167 62.982 C 64.167 62.665,64.081 62.500,63.917 62.500 C 63.731 62.500,63.667 62.305,63.667 61.745 C 63.667 61.227,63.588 60.959,63.417 60.894 C 63.274 60.839,63.167 60.590,63.167 60.316 C 63.167 59.944,63.090 59.833,62.833 59.833 C 62.549 59.833,62.500 59.722,62.500 59.078 C 62.500 58.561,62.421 58.293,62.250 58.227 C 62.107 58.172,62.000 57.924,62.000 57.649 C 62.000 57.331,61.915 57.167,61.750 57.167 C 61.565 57.167,61.500 56.972,61.500 56.411 C 61.500 55.894,61.421 55.626,61.250 55.560 C 61.107 55.506,61.000 55.257,61.000 54.982 C 61.000 54.665,60.915 54.500,60.750 54.500 C 60.571 54.500,60.500 54.317,60.500 53.854 C 60.500 53.483,60.394 53.119,60.250 53.000 C 60.112 52.886,60.000 52.607,60.000 52.381 C 60.000 52.109,59.887 51.939,59.667 51.882 C 59.397 51.811,59.333 51.654,59.333 51.059 C 59.333 50.558,59.253 50.292,59.083 50.227 C 58.941 50.172,58.833 49.924,58.833 49.649 C 58.833 49.331,58.748 49.167,58.583 49.167 C 58.398 49.167,58.333 48.972,58.333 48.417 C 58.333 47.861,58.269 47.667,58.083 47.667 C 57.910 47.667,57.833 47.493,57.833 47.101 C 57.833 46.752,57.738 46.499,57.583 46.440 C 57.446 46.387,57.333 46.160,57.333 45.936 C 57.333 45.355,57.168 45.000,56.899 45.000 C 56.746 45.000,56.667 44.807,56.667 44.434 C 56.667 44.086,56.571 43.832,56.417 43.773 C 56.252 43.710,56.167 43.449,56.167 43.005 C 56.167 42.519,56.098 42.333,55.917 42.333 C 55.744 42.333,55.667 42.159,55.667 41.768 C 55.667 41.419,55.571 41.166,55.417 41.106 C 55.252 41.043,55.167 40.782,55.167 40.339 C 55.167 39.852,55.098 39.667,54.917 39.667 C 54.750 39.667,54.667 39.500,54.667 39.167 C 54.667 38.889,54.519 38.519,54.333 38.333 C 54.148 38.148,54.000 37.778,54.000 37.500 C 54.000 37.167,53.917 37.000,53.750 37.000 C 53.577 37.000,53.500 36.826,53.500 36.437 C 53.500 36.127,53.387 35.781,53.250 35.667 C 53.112 35.553,53.000 35.206,53.000 34.896 C 53.000 34.507,52.923 34.333,52.750 34.333 C 52.577 34.333,52.500 34.160,52.500 33.770 C 52.500 33.461,52.387 33.114,52.250 33.000 C 52.112 32.886,52.000 32.658,52.000 32.493 C 52.000 32.016,51.817 31.667,51.566 31.667 C 51.405 31.667,51.333 31.458,51.333 30.995 C 51.333 30.551,51.248 30.290,51.083 30.227 C 50.929 30.168,50.833 29.914,50.833 29.566 C 50.833 29.174,50.756 29.000,50.583 29.000 C 50.410 29.000,50.333 28.825,50.333 28.429 C 50.333 28.114,50.221 27.745,50.083 27.607 C 49.946 27.470,49.833 27.127,49.833 26.845 C 49.833 26.501,49.751 26.333,49.583 26.333 C 49.436 26.333,49.332 26.180,49.331 25.958 C 49.327 25.322,49.139 24.833,48.897 24.833 C 48.745 24.833,48.667 24.636,48.667 24.250 C 48.667 23.843,48.591 23.667,48.417 23.667 C 48.236 23.667,48.167 23.481,48.167 22.995 C 48.167 22.551,48.082 22.290,47.917 22.227 C 47.762 22.168,47.667 21.914,47.667 21.566 C 47.667 21.198,47.587 21.000,47.439 21.000 C 47.297 21.000,47.175 20.734,47.116 20.295 C 47.064 19.908,46.942 19.564,46.844 19.531 C 46.747 19.499,46.667 19.246,46.667 18.971 C 46.667 18.609,46.574 18.444,46.333 18.382 C 46.064 18.311,46.000 18.154,46.000 17.564 C 46.000 17.026,45.934 16.833,45.750 16.833 C 45.575 16.833,45.500 16.657,45.500 16.250 C 45.500 15.843,45.425 15.667,45.250 15.667 C 45.112 15.667,45.000 15.554,45.000 15.417 C 45.000 15.197,43.796 15.167,35.167 15.167 L 25.333 15.167 25.333 15.667 M72.167 43.833 L 72.167 72.500 82.250 72.500 L 92.333 72.500 92.333 43.833 L 92.333 15.167 82.250 15.167 L 72.167 15.167 72.167 43.833 M94.000 20.986 C 94.000 24.187,94.046 26.925,94.101 27.070 C 94.191 27.304,94.979 27.333,101.268 27.333 L 108.333 27.333 108.333 32.917 L 108.333 38.500 101.167 38.500 L 94.000 38.500 94.000 43.820 C 94.000 46.746,94.046 49.258,94.101 49.403 C 94.191 49.638,94.979 49.667,101.268 49.667 L 108.333 49.667 108.333 55.250 L 108.333 60.833 101.167 60.833 L 94.000 60.833 94.000 66.667 L 94.000 72.500 105.659 72.500 L 117.317 72.500 118.200 71.667 C 120.408 69.585,120.687 69.333,120.780 69.333 C 120.935 69.333,121.667 68.501,121.667 68.325 C 121.667 68.238,121.779 68.167,121.917 68.167 C 122.054 68.167,122.167 68.054,122.167 67.917 C 122.167 67.779,122.279 67.667,122.417 67.667 C 122.554 67.667,122.667 67.554,122.667 67.417 C 122.667 67.279,122.764 67.167,122.883 67.167 C 123.002 67.167,123.283 66.945,123.508 66.674 C 123.733 66.403,124.010 66.178,124.125 66.174 C 124.240 66.170,124.333 66.089,124.333 65.994 C 124.333 65.900,124.558 65.602,124.833 65.333 C 125.108 65.065,125.333 64.767,125.333 64.672 C 125.333 64.578,125.483 64.500,125.667 64.500 C 125.852 64.500,126.000 64.389,126.000 64.250 C 126.000 64.112,126.112 64.000,126.250 64.000 C 126.388 64.000,126.500 63.887,126.500 63.750 C 126.500 63.612,126.612 63.500,126.750 63.500 C 126.888 63.500,127.000 63.387,127.000 63.250 C 127.000 63.112,127.112 63.000,127.250 63.000 C 127.388 63.000,127.500 62.887,127.500 62.750 C 127.500 62.612,127.607 62.500,127.739 62.500 C 127.870 62.500,128.025 62.350,128.083 62.167 C 128.142 61.983,128.297 61.833,128.428 61.833 C 128.631 61.833,128.667 60.886,128.667 55.500 C 128.667 50.198,128.629 49.167,128.434 49.167 C 128.307 49.167,128.159 49.054,128.106 48.917 C 128.054 48.779,127.896 48.667,127.755 48.667 C 127.615 48.667,127.500 48.554,127.500 48.417 C 127.500 48.279,127.388 48.167,127.250 48.167 C 127.112 48.167,127.000 48.052,127.000 47.911 C 127.000 47.771,126.888 47.613,126.750 47.560 C 126.612 47.508,126.500 47.360,126.500 47.232 C 126.500 47.104,126.388 47.000,126.250 47.000 C 126.112 47.000,126.000 46.887,126.000 46.750 C 126.000 46.612,125.888 46.500,125.750 46.500 C 125.612 46.500,125.500 46.387,125.500 46.250 C 125.500 46.111,125.352 46.000,125.167 46.000 C 124.981 46.000,124.833 45.889,124.833 45.750 C 124.833 45.612,124.721 45.500,124.583 45.500 C 124.446 45.500,124.333 45.385,124.333 45.245 C 124.333 45.104,124.221 44.946,124.083 44.894 C 123.946 44.841,123.833 44.693,123.833 44.566 C 123.833 44.438,123.721 44.333,123.583 44.333 C 123.446 44.333,123.333 44.221,123.333 44.083 C 123.333 43.946,123.446 43.833,123.583 43.833 C 123.721 43.833,123.833 43.721,123.833 43.583 C 123.833 43.446,123.946 43.333,124.083 43.333 C 124.221 43.333,124.333 43.221,124.333 43.083 C 124.333 42.946,124.446 42.833,124.583 42.833 C 124.721 42.833,124.833 42.721,124.833 42.583 C 124.833 42.446,124.953 42.333,125.099 42.333 C 125.245 42.333,125.404 42.183,125.452 42.000 C 125.500 41.817,125.643 41.667,125.769 41.667 C 125.896 41.667,126.000 41.554,126.000 41.417 C 126.000 41.279,126.112 41.167,126.250 41.167 C 126.388 41.167,126.500 41.054,126.500 40.917 C 126.500 40.779,126.612 40.667,126.750 40.667 C 126.888 40.667,127.000 40.554,127.000 40.417 C 127.000 40.279,127.112 40.167,127.250 40.167 C 127.388 40.167,127.500 40.095,127.500 40.008 C 127.500 39.801,128.301 39.000,128.508 39.000 C 128.606 39.000,128.667 36.485,128.667 32.417 C 128.667 26.901,128.629 25.833,128.434 25.833 C 128.307 25.833,128.159 25.721,128.106 25.583 C 128.054 25.446,127.896 25.333,127.755 25.333 C 127.611 25.333,127.500 25.188,127.500 25.000 C 127.500 24.815,127.389 24.667,127.250 24.667 C 127.112 24.667,127.000 24.554,127.000 24.417 C 127.000 24.279,126.888 24.167,126.750 24.167 C 126.612 24.167,126.500 24.054,126.500 23.917 C 126.500 23.779,126.396 23.667,126.268 23.667 C 126.140 23.667,125.992 23.554,125.940 23.417 C 125.887 23.279,125.729 23.167,125.589 23.167 C 125.448 23.167,125.333 23.054,125.333 22.917 C 125.333 22.779,125.221 22.667,125.083 22.667 C 124.946 22.667,124.833 22.593,124.833 22.504 C 124.833 22.271,123.088 20.500,122.858 20.500 C 122.753 20.500,122.667 20.387,122.667 20.250 C 122.667 20.112,122.554 20.000,122.417 20.000 C 122.279 20.000,122.167 19.887,122.167 19.750 C 122.167 19.612,122.054 19.500,121.917 19.500 C 121.779 19.500,121.667 19.387,121.667 19.250 C 121.667 19.112,121.595 19.000,121.508 19.000 C 121.421 19.000,120.802 18.476,120.133 17.836 C 119.464 17.196,118.557 16.334,118.118 15.920 L 117.319 15.167 105.660 15.167 L 94.000 15.167 94.000 20.986 M146.167 15.417 C 146.167 15.554,146.054 15.667,145.917 15.667 C 145.779 15.667,145.667 15.779,145.667 15.917 C 145.667 16.054,145.554 16.167,145.417 16.167 C 145.279 16.167,145.167 16.271,145.167 16.399 C 145.167 16.527,145.054 16.674,144.917 16.727 C 144.779 16.780,144.667 16.938,144.667 17.078 C 144.667 17.218,144.552 17.333,144.411 17.333 C 144.271 17.333,144.113 17.446,144.060 17.583 C 144.008 17.721,143.860 17.833,143.732 17.833 C 143.604 17.833,143.500 17.946,143.500 18.083 C 143.500 18.221,143.387 18.333,143.250 18.333 C 143.112 18.333,143.000 18.446,143.000 18.583 C 143.000 18.721,142.887 18.833,142.750 18.833 C 142.612 18.833,142.500 18.946,142.500 19.083 C 142.500 19.221,142.387 19.333,142.250 19.333 C 142.111 19.333,142.000 19.481,142.000 19.667 C 142.000 19.855,141.889 20.000,141.745 20.000 C 141.604 20.000,141.446 20.112,141.394 20.250 C 141.341 20.387,141.193 20.500,141.066 20.500 C 140.938 20.500,140.833 20.612,140.833 20.750 C 140.833 20.887,140.762 21.000,140.674 21.000 C 140.586 21.000,140.108 21.394,139.611 21.875 C 137.585 23.838,136.480 24.833,136.327 24.833 C 136.239 24.833,136.167 24.946,136.167 25.083 C 136.167 25.221,136.054 25.333,135.917 25.333 C 135.779 25.333,135.667 25.446,135.667 25.583 C 135.667 25.721,135.562 25.833,135.434 25.833 C 135.010 25.833,135.000 26.259,135.000 43.833 C 135.000 61.407,135.010 61.833,135.434 61.833 C 135.562 61.833,135.667 61.946,135.667 62.083 C 135.667 62.221,135.779 62.333,135.917 62.333 C 136.054 62.333,136.167 62.440,136.167 62.569 C 136.167 62.699,136.239 62.831,136.326 62.861 C 136.494 62.919,138.286 64.524,139.692 65.875 C 140.145 66.310,140.587 66.667,140.675 66.667 C 140.762 66.667,140.833 66.779,140.833 66.917 C 140.833 67.054,140.941 67.167,141.072 67.167 C 141.203 67.167,141.358 67.317,141.417 67.500 C 141.475 67.683,141.630 67.833,141.761 67.833 C 141.893 67.833,142.000 67.946,142.000 68.083 C 142.000 68.221,142.112 68.333,142.250 68.333 C 142.387 68.333,142.500 68.446,142.500 68.583 C 142.500 68.721,142.612 68.833,142.750 68.833 C 142.887 68.833,143.000 68.946,143.000 69.083 C 143.000 69.221,143.112 69.333,143.250 69.333 C 143.387 69.333,143.500 69.446,143.500 69.583 C 143.500 69.721,143.604 69.833,143.731 69.833 C 143.857 69.833,144.000 69.983,144.048 70.167 C 144.096 70.350,144.255 70.500,144.401 70.500 C 144.547 70.500,144.667 70.612,144.667 70.750 C 144.667 70.887,144.779 71.000,144.917 71.000 C 145.054 71.000,145.167 71.112,145.167 71.250 C 145.167 71.387,145.279 71.500,145.417 71.500 C 145.554 71.500,145.667 71.612,145.667 71.750 C 145.667 71.887,145.779 72.000,145.917 72.000 C 146.054 72.000,146.167 72.112,146.167 72.250 C 146.167 72.466,146.787 72.500,150.750 72.500 L 155.333 72.500 155.333 43.833 L 155.333 15.167 150.750 15.167 C 146.787 15.167,146.167 15.201,146.167 15.417 M157.333 20.986 C 157.333 24.187,157.379 26.925,157.434 27.070 C 157.524 27.303,158.224 27.333,163.601 27.333 L 169.667 27.333 169.667 32.917 L 169.667 38.500 179.750 38.500 L 189.833 38.500 189.833 32.167 C 189.833 26.648,189.801 25.833,189.583 25.833 C 189.446 25.833,189.333 25.721,189.333 25.583 C 189.333 25.446,189.221 25.333,189.083 25.333 C 188.946 25.333,188.833 25.248,188.833 25.144 C 188.833 24.922,188.054 24.167,187.825 24.167 C 187.738 24.167,187.667 24.054,187.667 23.917 C 187.667 23.779,187.554 23.667,187.417 23.667 C 187.279 23.667,187.167 23.554,187.167 23.417 C 187.167 23.279,187.054 23.167,186.917 23.167 C 186.779 23.167,186.667 23.054,186.667 22.917 C 186.667 22.779,186.592 22.667,186.500 22.667 C 186.408 22.667,186.033 22.367,185.667 22.000 C 185.300 21.633,185.000 21.258,185.000 21.167 C 185.000 21.075,184.887 21.000,184.750 21.000 C 184.612 21.000,184.500 20.887,184.500 20.750 C 184.500 20.612,184.430 20.500,184.345 20.500 C 184.260 20.500,183.591 19.919,182.859 19.208 C 182.126 18.498,181.105 17.542,180.589 17.083 C 180.074 16.625,179.390 16.006,179.070 15.708 L 178.489 15.167 167.911 15.167 L 157.333 15.167 157.333 20.986 M197.833 43.833 L 197.833 72.500 207.899 72.500 C 216.924 72.500,217.975 72.473,218.066 72.236 C 218.198 71.892,218.198 15.775,218.066 15.430 C 217.975 15.194,216.924 15.167,207.899 15.167 L 197.833 15.167 197.833 43.833 M219.669 20.875 C 219.670 24.015,219.716 26.752,219.772 26.958 L 219.872 27.333 227.019 27.333 L 234.167 27.333 234.167 35.583 L 234.167 43.833 226.917 43.833 L 219.667 43.833 219.669 49.542 C 219.670 52.681,219.716 55.419,219.772 55.625 C 219.872 55.998,219.887 56.000,223.269 56.000 C 226.556 56.000,226.667 56.011,226.667 56.333 C 226.667 56.519,226.778 56.667,226.917 56.667 C 227.081 56.667,227.167 56.831,227.167 57.149 C 227.167 57.424,227.274 57.672,227.417 57.727 C 227.554 57.780,227.667 58.007,227.667 58.233 C 227.667 58.458,227.770 58.746,227.896 58.873 C 228.023 58.999,228.180 59.347,228.245 59.646 C 228.311 59.945,228.470 60.230,228.599 60.279 C 228.728 60.329,228.833 60.586,228.833 60.851 C 228.833 61.169,228.919 61.333,229.083 61.333 C 229.248 61.333,229.333 61.498,229.333 61.816 C 229.333 62.090,229.441 62.339,229.583 62.394 C 229.729 62.450,229.833 62.699,229.833 62.995 C 229.833 63.333,229.916 63.500,230.083 63.500 C 230.250 63.500,230.333 63.667,230.333 64.000 C 230.333 64.333,230.417 64.500,230.583 64.500 C 230.752 64.500,230.833 64.668,230.833 65.016 C 230.833 65.391,230.924 65.555,231.167 65.618 C 231.403 65.680,231.500 65.846,231.500 66.186 C 231.500 66.502,231.586 66.667,231.750 66.667 C 231.917 66.667,232.000 66.834,232.000 67.172 C 232.000 67.467,232.104 67.717,232.250 67.773 C 232.393 67.828,232.500 68.076,232.500 68.351 C 232.500 68.669,232.585 68.833,232.750 68.833 C 232.915 68.833,233.000 68.998,233.000 69.316 C 233.000 69.590,233.107 69.839,233.250 69.894 C 233.387 69.946,233.500 70.179,233.500 70.411 C 233.500 70.643,233.644 70.978,233.821 71.154 C 233.998 71.331,234.166 71.687,234.196 71.946 L 234.250 72.417 245.083 72.417 L 255.917 72.417 255.972 72.030 C 256.011 71.751,255.929 71.617,255.680 71.552 C 255.430 71.486,255.333 71.327,255.333 70.981 C 255.333 70.665,255.248 70.500,255.083 70.500 C 254.916 70.500,254.833 70.333,254.833 69.995 C 254.833 69.699,254.729 69.450,254.583 69.394 C 254.446 69.341,254.333 69.116,254.333 68.894 C 254.333 68.671,254.225 68.448,254.094 68.398 C 253.962 68.347,253.806 68.087,253.747 67.819 C 253.688 67.552,253.571 67.333,253.487 67.333 C 253.402 67.333,253.333 67.221,253.333 67.085 C 253.333 66.948,253.183 66.742,253.000 66.628 C 252.817 66.513,252.667 66.250,252.667 66.043 C 252.667 65.820,252.565 65.667,252.417 65.667 C 252.252 65.667,252.167 65.502,252.167 65.184 C 252.167 64.910,252.059 64.661,251.917 64.606 C 251.771 64.550,251.667 64.301,251.667 64.005 C 251.667 63.667,251.584 63.500,251.417 63.500 C 251.260 63.500,251.167 63.342,251.167 63.078 C 251.167 62.846,251.059 62.615,250.927 62.564 C 250.795 62.514,250.639 62.253,250.580 61.986 C 250.522 61.719,250.367 61.500,250.237 61.500 C 250.107 61.500,250.000 61.355,250.000 61.179 C 250.000 61.002,249.887 60.745,249.750 60.607 C 249.612 60.470,249.500 60.239,249.500 60.095 C 249.500 59.951,249.387 59.833,249.250 59.833 C 249.083 59.833,249.000 59.666,249.000 59.328 C 249.000 59.033,248.896 58.783,248.750 58.727 C 248.607 58.672,248.500 58.424,248.500 58.149 C 248.500 57.851,248.412 57.667,248.271 57.667 C 248.145 57.667,247.997 57.442,247.942 57.167 C 247.883 56.873,247.737 56.667,247.588 56.667 C 247.416 56.667,247.333 56.503,247.333 56.161 C 247.333 55.866,247.229 55.616,247.083 55.560 C 246.946 55.508,246.833 55.332,246.833 55.169 C 246.833 55.007,246.721 54.781,246.583 54.667 C 246.446 54.553,246.333 54.388,246.333 54.301 C 246.333 54.214,246.221 54.030,246.083 53.893 C 245.850 53.659,245.753 53.214,245.824 52.696 C 245.840 52.574,246.187 52.156,246.594 51.766 C 247.000 51.376,247.333 50.969,247.333 50.862 C 247.333 50.755,247.446 50.667,247.583 50.667 C 247.721 50.667,247.833 50.554,247.833 50.417 C 247.833 50.279,247.920 50.167,248.025 50.167 C 248.255 50.167,250.000 48.396,250.000 48.163 C 250.000 48.073,250.112 48.000,250.250 48.000 C 250.387 48.000,250.500 47.887,250.500 47.750 C 250.500 47.612,250.612 47.500,250.750 47.500 C 250.887 47.500,251.000 47.387,251.000 47.250 C 251.000 47.112,251.112 47.000,251.250 47.000 C 251.387 47.000,251.500 46.933,251.500 46.851 C 251.500 46.769,252.025 46.171,252.667 45.523 L 253.833 44.345 253.833 35.089 C 253.833 26.973,253.803 25.833,253.583 25.833 C 253.446 25.833,253.333 25.726,253.333 25.595 C 253.333 25.463,253.183 25.308,253.000 25.250 C 252.817 25.192,252.667 25.037,252.667 24.905 C 252.667 24.774,252.554 24.667,252.417 24.667 C 252.279 24.667,252.167 24.554,252.167 24.417 C 252.167 24.279,252.054 24.167,251.917 24.167 C 251.779 24.167,251.667 24.054,251.667 23.917 C 251.667 23.779,251.554 23.667,251.417 23.667 C 251.279 23.667,251.167 23.554,251.167 23.417 C 251.167 23.279,251.054 23.167,250.917 23.167 C 250.779 23.167,250.667 23.054,250.667 22.917 C 250.667 22.778,250.519 22.667,250.333 22.667 C 250.111 22.667,250.000 22.556,250.000 22.333 C 250.000 22.148,249.889 22.000,249.750 22.000 C 249.612 22.000,249.500 21.887,249.500 21.750 C 249.500 21.613,249.387 21.500,249.250 21.500 C 249.112 21.500,249.000 21.387,249.000 21.250 C 249.000 21.112,248.887 21.000,248.750 21.000 C 248.612 21.000,248.500 20.887,248.500 20.750 C 248.500 20.612,248.396 20.500,248.268 20.500 C 248.140 20.500,247.992 20.387,247.940 20.250 C 247.887 20.112,247.729 20.000,247.589 20.000 C 247.448 20.000,247.333 19.885,247.333 19.745 C 247.333 19.604,247.221 19.446,247.083 19.394 C 246.946 19.341,246.833 19.193,246.833 19.066 C 246.833 18.938,246.721 18.833,246.583 18.833 C 246.446 18.833,246.333 18.721,246.333 18.583 C 246.333 18.446,246.221 18.333,246.083 18.333 C 245.946 18.333,245.833 18.221,245.833 18.083 C 245.833 17.946,245.729 17.833,245.601 17.833 C 245.473 17.833,245.326 17.721,245.273 17.583 C 245.220 17.446,245.062 17.333,244.922 17.333 C 244.782 17.333,244.667 17.221,244.667 17.083 C 244.667 16.946,244.554 16.833,244.417 16.833 C 244.279 16.833,244.167 16.718,244.167 16.578 C 244.167 16.438,244.054 16.280,243.917 16.227 C 243.779 16.174,243.667 16.027,243.667 15.899 C 243.667 15.771,243.554 15.667,243.417 15.667 C 243.279 15.667,243.167 15.554,243.167 15.417 C 243.167 15.197,241.750 15.167,231.417 15.167 L 219.667 15.167 219.669 20.875 M288.410 15.550 C 288.262 16.142,288.398 28.121,288.556 28.278 C 288.870 28.592,310.508 28.443,310.740 28.125 C 310.857 27.965,311.039 27.833,311.143 27.833 C 311.248 27.833,311.333 27.721,311.333 27.583 C 311.333 27.446,311.446 27.333,311.583 27.333 C 311.721 27.333,311.833 27.221,311.833 27.083 C 311.833 26.946,311.946 26.833,312.083 26.833 C 312.221 26.833,312.333 26.721,312.333 26.583 C 312.333 26.446,312.446 26.333,312.583 26.333 C 312.721 26.333,312.835 26.240,312.838 26.125 C 312.841 26.010,313.068 25.696,313.343 25.425 C 313.618 25.155,313.887 24.762,313.940 24.550 C 313.993 24.339,314.141 24.167,314.268 24.167 C 314.396 24.167,314.500 24.054,314.500 23.917 C 314.500 23.779,314.612 23.667,314.750 23.667 C 314.887 23.667,315.000 23.554,315.000 23.417 C 315.000 23.279,315.112 23.167,315.250 23.167 C 315.387 23.167,315.500 23.059,315.500 22.928 C 315.500 22.797,315.650 22.642,315.833 22.583 C 316.017 22.525,316.167 22.370,316.167 22.239 C 316.167 22.107,316.279 22.000,316.417 22.000 C 316.554 22.000,316.667 21.922,316.667 21.828 C 316.667 21.733,316.892 21.435,317.167 21.167 C 317.442 20.898,317.667 20.525,317.667 20.339 C 317.667 20.149,317.776 20.000,317.917 20.000 C 318.056 20.000,318.167 19.852,318.167 19.667 C 318.167 19.444,318.278 19.333,318.500 19.333 C 318.685 19.333,318.833 19.222,318.833 19.083 C 318.833 18.946,318.946 18.833,319.083 18.833 C 319.221 18.833,319.333 18.721,319.333 18.583 C 319.333 18.446,319.446 18.333,319.583 18.333 C 319.721 18.333,319.833 18.221,319.833 18.083 C 319.833 17.946,319.946 17.833,320.083 17.833 C 320.221 17.833,320.333 17.718,320.333 17.578 C 320.333 17.438,320.446 17.280,320.583 17.227 C 320.721 17.174,320.833 17.027,320.833 16.899 C 320.833 16.771,320.929 16.667,321.047 16.667 C 321.307 16.667,321.682 15.735,321.556 15.405 C 321.477 15.201,319.106 15.167,304.985 15.167 L 288.506 15.167 288.410 15.550 M324.167 15.417 C 324.167 15.554,324.073 15.668,323.958 15.670 C 323.713 15.673,323.000 16.388,323.000 16.631 C 323.000 16.723,322.887 16.841,322.750 16.894 C 322.612 16.946,322.500 17.179,322.500 17.411 C 322.500 17.675,322.406 17.833,322.250 17.833 C 322.112 17.833,322.000 17.946,322.000 18.083 C 322.000 18.221,321.887 18.333,321.750 18.333 C 321.612 18.333,321.500 18.446,321.500 18.583 C 321.500 18.721,321.387 18.833,321.250 18.833 C 321.112 18.833,321.000 18.943,321.000 19.077 C 321.000 19.212,320.850 19.402,320.667 19.500 C 320.483 19.598,320.333 19.828,320.333 20.011 C 320.333 20.194,320.221 20.387,320.083 20.440 C 319.946 20.492,319.833 20.640,319.833 20.768 C 319.833 20.896,319.721 21.000,319.583 21.000 C 319.446 21.000,319.333 21.112,319.333 21.250 C 319.333 21.387,319.221 21.500,319.083 21.500 C 318.946 21.500,318.833 21.615,318.833 21.755 C 318.833 21.896,318.721 22.054,318.583 22.106 C 318.446 22.159,318.333 22.295,318.333 22.409 C 318.333 22.522,318.183 22.751,318.000 22.917 C 317.817 23.083,317.667 23.319,317.667 23.442 C 317.667 23.566,317.554 23.667,317.417 23.667 C 317.279 23.667,317.167 23.779,317.167 23.917 C 317.167 24.054,317.054 24.167,316.917 24.167 C 316.779 24.167,316.667 24.271,316.667 24.399 C 316.667 24.527,316.554 24.674,316.417 24.727 C 316.279 24.780,316.167 24.938,316.167 25.078 C 316.167 25.218,316.088 25.333,315.991 25.333 C 315.895 25.333,315.738 25.558,315.642 25.833 C 315.546 26.108,315.362 26.333,315.234 26.333 C 315.105 26.333,315.000 26.446,315.000 26.583 C 315.000 26.721,314.887 26.833,314.750 26.833 C 314.612 26.833,314.500 26.938,314.500 27.066 C 314.500 27.193,314.387 27.341,314.250 27.394 C 314.112 27.446,314.000 27.596,314.000 27.727 C 314.000 27.858,313.887 28.008,313.750 28.060 C 313.612 28.113,313.500 28.346,313.500 28.578 C 313.500 28.842,313.406 29.000,313.250 29.000 C 313.112 29.000,313.000 29.113,313.000 29.250 C 313.000 29.389,312.852 29.500,312.667 29.500 C 312.483 29.500,312.333 29.604,312.333 29.732 C 312.333 29.860,312.221 30.008,312.083 30.060 C 311.946 30.113,311.833 30.263,311.833 30.394 C 311.833 30.524,311.721 30.674,311.583 30.727 C 311.446 30.780,311.333 31.013,311.333 31.245 C 311.333 31.509,311.240 31.667,311.083 31.667 C 310.946 31.667,310.833 31.779,310.833 31.917 C 310.833 32.054,310.721 32.167,310.583 32.167 C 310.446 32.167,310.333 32.279,310.333 32.417 C 310.333 32.554,310.218 32.667,310.078 32.667 C 309.938 32.667,309.775 32.798,309.716 32.958 C 309.657 33.119,309.509 33.310,309.388 33.383 C 309.266 33.457,309.167 33.700,309.167 33.925 C 309.167 34.177,309.071 34.333,308.917 34.333 C 308.779 34.333,308.667 34.446,308.667 34.583 C 308.667 34.721,308.554 34.833,308.417 34.833 C 308.279 34.833,308.167 34.946,308.167 35.083 C 308.167 35.221,308.054 35.333,307.917 35.333 C 307.779 35.333,307.667 35.446,307.667 35.583 C 307.667 35.721,307.588 35.833,307.491 35.833 C 307.395 35.833,307.207 36.096,307.073 36.417 C 306.939 36.737,306.755 37.000,306.664 37.000 C 306.574 37.000,306.500 37.112,306.500 37.250 C 306.500 37.387,306.387 37.500,306.250 37.500 C 306.112 37.500,306.000 37.612,306.000 37.750 C 306.000 37.887,305.887 38.000,305.750 38.000 C 305.612 38.000,305.500 38.104,305.500 38.232 C 305.500 38.360,305.387 38.508,305.250 38.560 C 305.112 38.613,305.000 38.759,305.000 38.886 C 305.000 39.012,304.850 39.251,304.667 39.417 C 304.483 39.583,304.333 39.819,304.333 39.942 C 304.333 40.066,304.221 40.167,304.083 40.167 C 303.946 40.167,303.833 40.279,303.833 40.417 C 303.833 40.554,303.721 40.667,303.583 40.667 C 303.446 40.667,303.333 40.771,303.333 40.899 C 303.333 41.027,303.221 41.174,303.083 41.227 C 302.946 41.280,302.833 41.430,302.833 41.560 C 302.833 41.691,302.721 41.841,302.583 41.894 C 302.446 41.946,302.333 42.179,302.333 42.411 C 302.333 42.722,302.246 42.833,302.000 42.833 C 301.815 42.833,301.667 42.944,301.667 43.083 C 301.667 43.221,301.554 43.333,301.417 43.333 C 301.279 43.333,301.167 43.438,301.167 43.566 C 301.167 43.693,301.054 43.841,300.917 43.894 C 300.779 43.946,300.667 44.096,300.667 44.227 C 300.667 44.358,300.554 44.508,300.417 44.560 C 300.279 44.613,300.167 44.846,300.167 45.078 C 300.167 45.342,300.073 45.500,299.917 45.500 C 299.779 45.500,299.667 45.612,299.667 45.750 C 299.667 45.887,299.573 46.001,299.458 46.003 C 299.213 46.006,298.500 46.722,298.500 46.964 C 298.500 47.056,298.387 47.174,298.250 47.227 C 298.112 47.280,298.000 47.513,298.000 47.745 C 298.000 48.009,297.906 48.167,297.750 48.167 C 297.612 48.167,297.500 48.279,297.500 48.417 C 297.500 48.554,297.387 48.667,297.250 48.667 C 297.112 48.667,297.000 48.779,297.000 48.917 C 297.000 49.054,296.921 49.167,296.825 49.167 C 296.529 49.167,295.844 50.063,295.839 50.458 C 295.836 50.678,295.730 50.833,295.583 50.833 C 295.446 50.833,295.333 50.946,295.333 51.083 C 295.333 51.221,295.221 51.333,295.083 51.333 C 294.946 51.333,294.833 51.446,294.833 51.583 C 294.833 51.721,294.721 51.833,294.583 51.833 C 294.446 51.833,294.333 51.946,294.333 52.083 C 294.333 52.221,294.254 52.333,294.158 52.333 C 294.062 52.333,293.906 52.552,293.813 52.820 C 293.720 53.088,293.536 53.348,293.405 53.398 C 293.274 53.448,293.167 53.604,293.167 53.745 C 293.167 53.885,293.054 54.000,292.917 54.000 C 292.779 54.000,292.667 54.112,292.667 54.250 C 292.667 54.387,292.554 54.500,292.417 54.500 C 292.279 54.500,292.167 54.612,292.167 54.750 C 292.167 54.887,292.054 55.000,291.917 55.000 C 291.778 55.000,291.667 55.148,291.667 55.333 C 291.667 55.517,291.601 55.667,291.520 55.667 C 291.440 55.667,291.281 55.892,291.167 56.167 C 291.053 56.442,290.856 56.667,290.730 56.667 C 290.603 56.667,290.500 56.779,290.500 56.917 C 290.500 57.054,290.387 57.167,290.250 57.167 C 290.112 57.167,290.000 57.279,290.000 57.417 C 290.000 57.554,289.887 57.667,289.750 57.667 C 289.612 57.667,289.500 57.809,289.500 57.982 C 289.500 58.156,289.387 58.341,289.250 58.394 C 289.112 58.446,289.000 58.679,289.000 58.911 C 289.000 59.175,288.906 59.333,288.750 59.333 C 288.612 59.333,288.500 59.446,288.500 59.583 C 288.500 59.722,288.352 59.833,288.167 59.833 C 287.981 59.833,287.833 59.944,287.833 60.083 C 287.833 60.221,287.721 60.333,287.583 60.333 C 287.366 60.333,287.333 61.120,287.333 66.417 L 287.333 72.500 294.250 72.500 C 300.287 72.500,301.167 72.468,301.167 72.250 C 301.167 72.112,301.279 72.000,301.417 72.000 C 301.554 72.000,301.667 71.868,301.667 71.707 C 301.667 71.545,301.817 71.320,302.000 71.205 C 302.183 71.091,302.333 70.893,302.333 70.766 C 302.333 70.640,302.446 70.492,302.583 70.440 C 302.721 70.387,302.833 70.229,302.833 70.089 C 302.833 69.948,302.946 69.833,303.083 69.833 C 303.221 69.833,303.333 69.721,303.333 69.583 C 303.333 69.446,303.446 69.333,303.583 69.333 C 303.721 69.333,303.833 69.229,303.833 69.101 C 303.833 68.973,303.946 68.826,304.083 68.773 C 304.221 68.720,304.333 68.487,304.333 68.255 C 304.333 67.980,304.426 67.833,304.599 67.833 C 304.745 67.833,304.904 67.683,304.952 67.500 C 305.000 67.317,305.143 67.167,305.269 67.167 C 305.396 67.167,305.500 67.054,305.500 66.917 C 305.500 66.779,305.612 66.667,305.750 66.667 C 305.887 66.667,306.000 66.562,306.000 66.434 C 306.000 66.307,306.112 66.159,306.250 66.106 C 306.387 66.054,306.500 65.856,306.500 65.667 C 306.500 65.478,306.612 65.280,306.750 65.227 C 306.887 65.174,307.000 64.989,307.000 64.816 C 307.000 64.611,307.117 64.500,307.333 64.500 C 307.519 64.500,307.667 64.389,307.667 64.250 C 307.667 64.112,307.779 64.000,307.917 64.000 C 308.054 64.000,308.167 63.887,308.167 63.750 C 308.167 63.612,308.279 63.500,308.417 63.500 C 308.554 63.500,308.667 63.358,308.667 63.184 C 308.667 63.011,308.779 62.826,308.917 62.773 C 309.054 62.720,309.167 62.487,309.167 62.255 C 309.167 61.991,309.260 61.833,309.417 61.833 C 309.554 61.833,309.667 61.721,309.667 61.583 C 309.667 61.444,309.815 61.333,310.000 61.333 C 310.183 61.333,310.337 61.240,310.340 61.125 C 310.344 61.010,310.569 60.733,310.840 60.508 C 311.112 60.283,311.333 59.962,311.333 59.794 C 311.333 59.627,311.446 59.446,311.583 59.394 C 311.721 59.341,311.833 59.156,311.833 58.982 C 311.833 58.809,311.946 58.667,312.083 58.667 C 312.221 58.667,312.333 58.554,312.333 58.417 C 312.333 58.279,312.446 58.167,312.583 58.167 C 312.721 58.167,312.833 58.054,312.833 57.917 C 312.833 57.779,312.946 57.667,313.083 57.667 C 313.221 57.667,313.333 57.603,313.333 57.526 C 313.333 57.448,313.483 57.211,313.667 57.000 C 313.850 56.789,314.000 56.477,314.000 56.308 C 314.000 56.139,314.112 56.000,314.250 56.000 C 314.387 56.000,314.500 55.887,314.500 55.750 C 314.500 55.612,314.612 55.500,314.750 55.500 C 314.887 55.500,315.000 55.387,315.000 55.250 C 315.000 55.112,315.112 55.000,315.250 55.000 C 315.387 55.000,315.500 54.925,315.500 54.833 C 315.500 54.742,315.650 54.517,315.833 54.333 C 316.017 54.150,316.167 53.850,316.167 53.667 C 316.167 53.481,316.278 53.333,316.417 53.333 C 316.554 53.333,316.667 53.221,316.667 53.083 C 316.667 52.946,316.779 52.833,316.917 52.833 C 317.054 52.833,317.167 52.721,317.167 52.583 C 317.167 52.446,317.279 52.333,317.417 52.333 C 317.554 52.333,317.667 52.229,317.667 52.101 C 317.667 51.973,317.779 51.826,317.917 51.773 C 318.054 51.720,318.167 51.527,318.167 51.344 C 318.167 51.161,318.317 50.931,318.500 50.833 C 318.683 50.735,318.833 50.545,318.833 50.411 C 318.833 50.277,318.946 50.167,319.083 50.167 C 319.221 50.167,319.333 50.054,319.333 49.917 C 319.333 49.779,319.446 49.667,319.583 49.667 C 319.721 49.667,319.833 49.554,319.833 49.417 C 319.833 49.279,319.946 49.167,320.083 49.167 C 320.222 49.167,320.333 49.019,320.333 48.833 C 320.333 48.648,320.444 48.500,320.583 48.500 C 320.750 48.500,320.833 48.333,320.833 48.000 C 320.833 47.611,320.907 47.500,321.167 47.500 C 321.352 47.500,321.500 47.389,321.500 47.250 C 321.500 47.112,321.612 47.000,321.750 47.000 C 321.887 47.000,322.000 46.887,322.000 46.750 C 322.000 46.612,322.112 46.500,322.250 46.500 C 322.387 46.500,322.500 46.396,322.500 46.268 C 322.500 46.140,322.612 45.992,322.750 45.940 C 322.887 45.887,323.000 45.701,323.000 45.526 C 323.000 45.351,323.112 45.114,323.250 45.000 C 323.387 44.886,323.500 44.689,323.500 44.563 C 323.500 44.437,323.650 44.333,323.833 44.333 C 324.019 44.333,324.167 44.222,324.167 44.083 C 324.167 43.946,324.279 43.833,324.417 43.833 C 324.554 43.833,324.667 43.721,324.667 43.583 C 324.667 43.446,324.744 43.333,324.839 43.333 C 324.933 43.333,325.060 43.202,325.121 43.042 C 325.182 42.881,325.329 42.651,325.449 42.530 C 325.569 42.409,325.667 42.165,325.667 41.988 C 325.667 41.811,325.779 41.667,325.917 41.667 C 326.054 41.667,326.167 41.554,326.167 41.417 C 326.167 41.279,326.250 41.167,326.352 41.167 C 326.598 41.167,327.327 40.467,327.330 40.226 C 327.332 40.121,327.446 39.992,327.583 39.940 C 327.721 39.887,327.833 39.654,327.833 39.422 C 327.833 39.158,327.927 39.000,328.083 39.000 C 328.221 39.000,328.333 38.887,328.333 38.750 C 328.333 38.612,328.446 38.500,328.583 38.500 C 328.721 38.500,328.833 38.387,328.833 38.250 C 328.833 38.112,328.937 38.000,329.063 38.000 C 329.312 38.000,330.500 36.379,330.500 36.040 C 330.500 35.926,330.612 35.833,330.750 35.833 C 330.887 35.833,331.000 35.721,331.000 35.583 C 331.000 35.446,331.112 35.333,331.250 35.333 C 331.387 35.333,331.500 35.221,331.500 35.083 C 331.500 34.946,331.612 34.833,331.750 34.833 C 331.887 34.833,332.000 34.718,332.000 34.578 C 332.000 34.438,332.108 34.281,332.240 34.231 C 332.372 34.180,332.528 33.920,332.586 33.653 C 332.645 33.385,332.800 33.167,332.930 33.167 C 333.060 33.167,333.167 33.054,333.167 32.917 C 333.167 32.779,333.279 32.667,333.417 32.667 C 333.554 32.667,333.667 32.554,333.667 32.417 C 333.667 32.279,333.779 32.167,333.917 32.167 C 334.054 32.167,334.167 32.052,334.167 31.911 C 334.167 31.771,334.274 31.615,334.405 31.565 C 334.536 31.514,334.720 31.254,334.813 30.987 C 334.906 30.719,335.062 30.500,335.158 30.500 C 335.254 30.500,335.333 30.387,335.333 30.250 C 335.333 30.113,335.446 30.000,335.583 30.000 C 335.721 30.000,335.833 29.887,335.833 29.750 C 335.833 29.613,335.946 29.500,336.083 29.500 C 336.221 29.500,336.333 29.396,336.333 29.268 C 336.333 29.140,336.446 28.992,336.583 28.940 C 336.721 28.887,336.833 28.766,336.833 28.672 C 336.833 28.577,336.983 28.350,337.167 28.167 C 337.350 27.983,337.500 27.721,337.500 27.583 C 337.500 27.446,337.612 27.333,337.750 27.333 C 337.887 27.333,338.000 27.221,338.000 27.083 C 338.000 26.946,338.112 26.833,338.250 26.833 C 338.467 26.833,338.500 26.074,338.500 21.000 L 338.500 15.167 331.333 15.167 C 325.074 15.167,324.167 15.198,324.167 15.417 M344.333 43.833 L 344.333 72.500 354.417 72.500 L 364.500 72.500 364.500 61.083 L 364.500 49.667 373.321 49.667 C 381.119 49.667,382.173 49.636,382.405 49.405 C 382.633 49.177,382.667 48.391,382.667 43.321 L 382.667 37.500 373.583 37.500 L 364.500 37.500 364.500 26.333 L 364.500 15.167 354.417 15.167 L 344.333 15.167 344.333 43.833 M366.167 20.986 C 366.167 24.187,366.212 26.925,366.268 27.070 C 366.357 27.303,367.028 27.333,372.101 27.333 L 377.833 27.333 377.836 29.625 C 377.837 30.885,377.883 32.085,377.938 32.292 L 378.039 32.667 387.519 32.667 L 397.000 32.667 397.000 23.917 L 397.000 15.167 381.583 15.167 L 366.167 15.167 366.167 20.986 M23.167 18.505 C 23.167 18.949,23.082 19.210,22.917 19.273 C 22.762 19.332,22.667 19.586,22.667 19.934 C 22.667 20.326,22.590 20.500,22.417 20.500 C 22.231 20.500,22.167 20.694,22.167 21.250 C 22.167 21.780,22.099 22.000,21.934 22.000 C 21.669 22.000,21.500 22.354,21.500 22.910 C 21.500 23.120,21.387 23.386,21.250 23.500 C 21.112 23.614,21.000 23.926,21.000 24.192 C 21.000 24.470,20.893 24.718,20.750 24.773 C 20.580 24.838,20.500 25.104,20.500 25.601 C 20.500 26.141,20.434 26.333,20.250 26.333 C 20.077 26.333,20.000 26.507,20.000 26.896 C 20.000 27.206,19.887 27.553,19.750 27.667 C 19.612 27.781,19.500 28.127,19.500 28.437 C 19.500 28.816,19.421 29.000,19.260 29.000 C 19.104 29.000,18.982 29.259,18.910 29.739 C 18.849 30.145,18.694 30.518,18.566 30.567 C 18.438 30.616,18.331 30.865,18.328 31.120 C 18.325 31.375,18.213 31.729,18.078 31.907 C 17.943 32.085,17.833 32.433,17.833 32.681 C 17.833 32.928,17.721 33.174,17.583 33.227 C 17.412 33.293,17.333 33.561,17.333 34.078 C 17.333 34.638,17.269 34.833,17.083 34.833 C 16.909 34.833,16.833 35.009,16.833 35.417 C 16.833 35.803,16.755 36.000,16.602 36.000 C 16.457 36.000,16.330 36.273,16.261 36.735 C 16.200 37.141,16.042 37.512,15.909 37.563 C 15.754 37.623,15.667 37.892,15.667 38.310 C 15.667 38.738,15.580 38.998,15.417 39.060 C 15.273 39.115,15.167 39.364,15.167 39.644 C 15.167 39.923,15.060 40.172,14.917 40.227 C 14.753 40.290,14.667 40.549,14.667 40.977 C 14.667 41.405,14.580 41.664,14.417 41.727 C 14.245 41.793,14.167 42.061,14.167 42.578 C 14.167 43.138,14.102 43.333,13.917 43.333 C 13.751 43.333,13.667 43.499,13.667 43.825 C 13.667 44.099,13.551 44.382,13.405 44.463 C 13.260 44.544,13.101 44.923,13.049 45.305 C 12.991 45.737,12.870 46.000,12.728 46.000 C 12.570 46.000,12.500 46.224,12.500 46.732 C 12.500 47.229,12.420 47.495,12.250 47.560 C 12.107 47.615,12.000 47.864,12.000 48.144 C 12.000 48.423,11.893 48.672,11.750 48.727 C 11.587 48.790,11.500 49.049,11.500 49.477 C 11.500 49.905,11.413 50.164,11.250 50.227 C 11.079 50.293,11.000 50.561,11.000 51.078 C 11.000 51.722,10.951 51.833,10.667 51.833 C 10.399 51.833,10.333 51.944,10.333 52.399 C 10.333 52.748,10.238 53.001,10.083 53.060 C 9.918 53.124,9.833 53.385,9.833 53.828 C 9.833 54.314,9.764 54.500,9.583 54.500 C 9.399 54.500,9.333 54.692,9.333 55.232 C 9.333 55.729,9.253 55.995,9.083 56.060 C 8.937 56.116,8.833 56.366,8.833 56.661 C 8.833 56.999,8.751 57.167,8.583 57.167 C 8.399 57.167,8.333 57.360,8.333 57.905 C 8.333 58.498,8.267 58.665,8.000 58.750 C 7.741 58.832,7.667 59.002,7.667 59.516 C 7.667 59.950,7.581 60.210,7.417 60.273 C 7.262 60.332,7.167 60.586,7.167 60.934 C 7.167 61.326,7.090 61.500,6.917 61.500 C 6.731 61.500,6.667 61.694,6.667 62.250 C 6.667 62.806,6.602 63.000,6.417 63.000 C 6.236 63.000,6.167 63.186,6.167 63.672 C 6.167 64.115,6.082 64.376,5.917 64.440 C 5.762 64.499,5.667 64.752,5.667 65.101 C 5.667 65.472,5.587 65.667,5.436 65.667 C 5.194 65.667,5.006 66.156,5.002 66.797 C 5.001 67.006,4.888 67.220,4.750 67.273 C 4.587 67.336,4.500 67.595,4.500 68.023 C 4.500 68.451,4.413 68.710,4.250 68.773 C 4.107 68.828,4.000 69.077,4.000 69.356 C 4.000 69.636,3.893 69.885,3.750 69.940 C 3.580 70.005,3.500 70.271,3.500 70.768 C 3.500 71.308,3.434 71.500,3.250 71.500 C 3.083 71.500,3.000 71.667,3.000 72.000 L 3.000 72.500 12.833 72.500 L 22.667 72.500 22.667 72.018 C 22.667 71.743,22.774 71.494,22.917 71.440 C 23.087 71.374,23.167 71.108,23.167 70.606 C 23.167 70.105,23.247 69.838,23.417 69.773 C 23.582 69.710,23.667 69.448,23.667 69.000 C 23.667 68.552,23.751 68.290,23.917 68.227 C 24.080 68.164,24.167 67.905,24.167 67.482 C 24.167 67.056,24.281 66.719,24.500 66.500 C 24.703 66.297,24.833 65.944,24.833 65.597 C 24.833 65.284,24.913 65.001,25.011 64.969 C 25.108 64.936,25.233 64.575,25.288 64.166 C 25.343 63.757,25.488 63.322,25.611 63.199 C 25.733 63.076,25.836 62.738,25.839 62.446 C 25.842 62.155,25.954 61.771,26.089 61.593 C 26.223 61.415,26.333 61.054,26.333 60.790 C 26.333 60.526,26.446 60.197,26.583 60.060 C 26.721 59.922,26.833 59.527,26.833 59.181 C 26.833 58.763,26.946 58.450,27.167 58.250 C 27.369 58.067,27.500 57.737,27.500 57.411 C 27.500 57.116,27.613 56.781,27.750 56.667 C 27.903 56.540,28.000 56.175,28.000 55.730 C 28.000 55.192,28.066 55.000,28.250 55.000 C 28.439 55.000,28.500 54.796,28.500 54.167 C 28.500 53.537,28.561 53.333,28.750 53.333 C 28.935 53.333,29.000 53.139,29.000 52.583 C 29.000 52.028,29.065 51.833,29.250 51.833 C 29.438 51.833,29.500 51.632,29.500 51.019 C 29.500 50.346,29.557 50.191,29.833 50.118 C 30.096 50.050,30.167 49.891,30.167 49.367 C 30.167 48.930,30.252 48.669,30.417 48.606 C 30.588 48.541,30.667 48.273,30.667 47.755 C 30.667 47.195,30.731 47.000,30.917 47.000 C 31.101 47.000,31.167 46.808,31.167 46.268 C 31.167 45.771,31.247 45.505,31.417 45.440 C 31.588 45.374,31.667 45.106,31.667 44.589 C 31.667 44.028,31.731 43.833,31.917 43.833 C 32.100 43.833,32.167 43.643,32.167 43.123 C 32.167 42.594,32.251 42.361,32.500 42.205 C 33.038 41.870,32.946 39.167,32.397 39.167 C 32.245 39.167,32.167 38.969,32.167 38.583 C 32.167 38.176,32.091 38.000,31.917 38.000 C 31.731 38.000,31.667 37.806,31.667 37.250 C 31.667 36.694,31.602 36.500,31.417 36.500 C 31.231 36.500,31.167 36.305,31.167 35.745 C 31.167 35.227,31.088 34.959,30.917 34.894 C 30.774 34.839,30.667 34.590,30.667 34.316 C 30.667 33.998,30.581 33.833,30.417 33.833 C 30.243 33.833,30.167 33.659,30.167 33.264 C 30.167 32.529,30.023 32.167,29.732 32.167 C 29.568 32.167,29.500 31.947,29.500 31.417 C 29.500 30.861,29.435 30.667,29.250 30.667 C 29.075 30.667,29.000 30.491,29.000 30.083 C 29.000 29.676,28.925 29.500,28.750 29.500 C 28.566 29.500,28.500 29.308,28.500 28.768 C 28.500 28.305,28.417 28.004,28.274 27.949 C 28.150 27.901,28.004 27.539,27.951 27.143 C 27.898 26.747,27.775 26.397,27.677 26.365 C 27.580 26.332,27.500 26.096,27.500 25.839 C 27.500 25.512,27.400 25.346,27.167 25.285 C 26.894 25.214,26.833 25.058,26.833 24.432 C 26.833 23.863,26.769 23.667,26.583 23.667 C 26.402 23.667,26.333 23.481,26.333 22.995 C 26.333 22.551,26.248 22.290,26.083 22.227 C 25.929 22.168,25.833 21.914,25.833 21.566 C 25.833 21.174,25.756 21.000,25.583 21.000 C 25.399 21.000,25.333 20.808,25.333 20.268 C 25.333 19.771,25.253 19.505,25.083 19.440 C 24.946 19.387,24.833 19.149,24.833 18.911 C 24.833 18.134,24.553 17.833,23.827 17.833 C 23.167 17.833,23.167 17.833,23.167 18.505 M278.643 19.731 C 278.014 20.203,278.323 21.000,279.135 21.000 C 279.509 21.000,279.787 20.388,279.615 19.940 C 279.495 19.626,278.942 19.508,278.643 19.731 M273.177 22.611 C 272.509 23.079,273.051 24.086,273.858 23.875 C 274.268 23.768,274.402 23.463,274.270 22.936 C 274.146 22.444,273.633 22.292,273.177 22.611 M261.333 49.417 L 261.333 72.500 271.417 72.500 L 281.500 72.500 281.500 49.417 L 281.500 26.333 271.417 26.333 L 261.333 26.333 261.333 49.417 M243.667 52.333 C 243.667 52.667,243.583 52.833,243.417 52.833 C 243.278 52.833,243.167 52.981,243.167 53.167 C 243.167 53.352,243.056 53.500,242.917 53.500 C 242.779 53.500,242.667 53.612,242.667 53.750 C 242.667 53.887,242.562 54.000,242.434 54.000 C 242.307 54.000,242.159 54.112,242.106 54.250 C 242.054 54.387,241.896 54.500,241.755 54.500 C 241.615 54.500,241.500 54.612,241.500 54.750 C 241.500 55.149,227.914 55.124,227.471 54.724 C 226.816 54.131,227.069 54.000,228.875 53.998 C 230.793 53.995,231.333 53.900,231.333 53.564 C 231.333 53.381,231.730 53.333,233.255 53.333 C 234.810 53.333,235.195 53.286,235.273 53.083 C 235.351 52.881,235.743 52.833,237.351 52.833 C 239.002 52.833,239.333 52.792,239.333 52.583 C 239.333 52.376,239.655 52.333,241.230 52.333 C 242.712 52.333,243.171 52.279,243.333 52.083 C 243.624 51.733,243.667 51.765,243.667 52.333 M169.667 56.583 L 169.667 60.833 163.500 60.833 L 157.333 60.833 157.333 66.667 L 157.333 72.500 167.929 72.500 L 178.526 72.500 179.026 72.000 C 179.301 71.725,179.582 71.500,179.650 71.500 C 179.719 71.500,180.768 70.525,181.981 69.333 C 183.194 68.142,184.258 67.167,184.344 67.167 C 184.430 67.167,184.500 67.054,184.500 66.917 C 184.500 66.779,184.612 66.667,184.750 66.667 C 184.887 66.667,185.000 66.554,185.000 66.417 C 185.000 66.279,185.072 66.167,185.159 66.167 C 185.366 66.167,186.167 65.366,186.167 65.159 C 186.167 65.072,186.279 65.000,186.417 65.000 C 186.554 65.000,186.667 64.887,186.667 64.750 C 186.667 64.612,186.779 64.500,186.917 64.500 C 187.054 64.500,187.167 64.387,187.167 64.250 C 187.167 64.112,187.279 64.000,187.417 64.000 C 187.554 64.000,187.667 63.887,187.667 63.750 C 187.667 63.612,187.739 63.500,187.826 63.500 C 188.058 63.500,189.333 62.253,189.333 62.026 C 189.333 61.920,189.446 61.833,189.583 61.833 C 189.800 61.833,189.833 61.194,189.833 57.083 L 189.833 52.333 179.750 52.333 L 169.667 52.333 169.667 56.583 M376.833 57.917 L 376.833 60.833 371.500 60.833 L 366.167 60.833 366.167 66.667 L 366.167 72.500 381.583 72.500 L 397.000 72.500 397.000 63.750 L 397.000 55.000 386.917 55.000 L 376.833 55.000 376.833 57.917 M314.000 59.583 C 314.000 59.721,313.887 59.833,313.750 59.833 C 313.612 59.833,313.500 59.946,313.500 60.083 C 313.500 60.221,313.387 60.333,313.250 60.333 C 313.112 60.333,313.000 60.446,313.000 60.583 C 313.000 60.721,312.887 60.833,312.750 60.833 C 312.612 60.833,312.500 60.897,312.500 60.974 C 312.500 61.052,312.350 61.289,312.167 61.500 C 311.983 61.711,311.833 62.023,311.833 62.192 C 311.833 62.361,311.721 62.500,311.583 62.500 C 311.446 62.500,311.333 62.612,311.333 62.750 C 311.333 62.887,311.221 63.000,311.083 63.000 C 310.946 63.000,310.833 63.112,310.833 63.250 C 310.833 63.387,310.721 63.500,310.583 63.500 C 310.446 63.500,310.333 63.612,310.333 63.750 C 310.333 63.887,310.218 64.000,310.078 64.000 C 309.938 64.000,309.775 64.131,309.716 64.292 C 309.657 64.452,309.509 64.643,309.388 64.717 C 309.266 64.790,309.167 64.999,309.167 65.180 C 309.167 65.362,309.054 65.554,308.917 65.606 C 308.779 65.659,308.667 65.807,308.667 65.934 C 308.667 66.062,308.554 66.167,308.417 66.167 C 308.279 66.167,308.167 66.279,308.167 66.417 C 308.167 66.554,308.054 66.667,307.917 66.667 C 307.779 66.667,307.667 66.774,307.667 66.905 C 307.667 67.037,307.517 67.192,307.333 67.250 C 307.150 67.308,307.000 67.463,307.000 67.595 C 307.000 67.726,306.887 67.833,306.750 67.833 C 306.612 67.833,306.500 67.937,306.500 68.063 C 306.500 68.189,306.387 68.386,306.250 68.500 C 306.112 68.614,306.000 68.848,306.000 69.020 C 306.000 69.193,305.887 69.333,305.750 69.333 C 305.612 69.333,305.500 69.446,305.500 69.583 C 305.500 69.721,305.387 69.833,305.250 69.833 C 305.111 69.833,305.000 69.981,305.000 70.167 C 305.000 70.389,304.889 70.500,304.667 70.500 C 304.481 70.500,304.333 70.611,304.333 70.750 C 304.333 70.887,304.221 71.000,304.083 71.000 C 303.946 71.000,303.833 71.104,303.833 71.232 C 303.833 71.360,303.716 71.510,303.572 71.565 C 303.415 71.625,303.331 71.816,303.363 72.041 L 303.417 72.417 320.458 72.459 L 337.500 72.502 337.500 65.917 L 337.500 59.333 325.750 59.333 C 315.417 59.333,314.000 59.363,314.000 59.583 " stroke="none" fill="#fcfcfc" fill-rule="evenodd"></path><path id="path1" d="M272.500 1.989 C 272.500 2.084,272.236 2.272,271.914 2.407 C 271.592 2.542,271.338 2.711,271.351 2.784 C 271.419 3.194,271.301 3.500,271.075 3.500 C 270.865 3.500,270.823 3.692,270.852 4.500 C 270.876 5.160,270.958 5.500,271.093 5.500 C 271.205 5.500,271.346 5.695,271.406 5.934 C 271.475 6.208,271.696 6.436,272.008 6.554 C 272.278 6.656,272.500 6.836,272.500 6.953 C 272.500 7.099,272.773 7.167,273.364 7.167 C 274.321 7.167,275.667 6.622,275.667 6.235 C 275.667 6.106,275.779 6.000,275.917 6.000 C 276.119 6.000,276.167 5.731,276.167 4.578 C 276.167 3.468,276.112 3.135,275.917 3.060 C 275.779 3.008,275.667 2.865,275.667 2.743 C 275.667 2.622,275.524 2.477,275.349 2.422 C 275.174 2.366,274.993 2.223,274.947 2.103 C 274.843 1.832,272.500 1.723,272.500 1.989 M274.011 3.839 C 274.503 4.103,274.445 4.956,273.917 5.197 C 273.137 5.552,272.522 4.620,273.109 3.971 C 273.427 3.621,273.565 3.600,274.011 3.839 M277.333 5.266 C 277.333 5.412,277.183 5.570,277.000 5.618 C 276.768 5.679,276.667 5.846,276.667 6.166 C 276.667 6.419,276.554 6.719,276.417 6.833 C 276.112 7.086,276.100 7.391,276.375 7.857 C 276.542 8.140,276.542 8.225,276.375 8.286 C 276.260 8.327,276.167 8.467,276.167 8.597 C 276.167 8.727,276.054 8.833,275.917 8.833 C 275.779 8.833,275.667 8.946,275.667 9.083 C 275.667 9.290,275.361 9.333,273.911 9.333 C 272.505 9.333,272.137 9.383,272.060 9.583 C 272.008 9.721,271.822 9.833,271.649 9.833 C 271.131 9.833,271.210 11.097,271.759 11.606 C 272.362 12.165,275.956 12.211,276.500 11.667 C 276.683 11.483,276.908 11.333,277.000 11.333 C 277.092 11.333,277.167 11.221,277.167 11.083 C 277.167 10.946,277.279 10.833,277.417 10.833 C 277.554 10.833,277.667 10.721,277.667 10.583 C 277.667 10.446,277.771 10.333,277.899 10.333 C 278.027 10.333,278.174 10.221,278.227 10.083 C 278.298 9.899,278.589 9.833,279.333 9.833 C 280.078 9.833,280.369 9.768,280.440 9.583 C 280.492 9.446,280.640 9.333,280.768 9.333 C 280.896 9.333,281.000 9.229,281.000 9.101 C 281.000 8.973,281.112 8.826,281.250 8.773 C 281.712 8.596,281.590 6.377,281.077 5.622 L 280.655 5.000 278.994 5.000 C 277.586 5.000,277.333 5.040,277.333 5.266 M279.663 6.994 C 279.881 7.401,279.693 7.954,279.302 8.057 C 278.492 8.268,277.978 7.495,278.529 6.894 C 278.897 6.493,279.420 6.540,279.663 6.994 M279.333 11.750 C 279.333 11.887,279.221 12.000,279.083 12.000 C 278.946 12.000,278.833 12.112,278.833 12.250 C 278.833 12.464,278.351 12.500,275.495 12.500 C 272.681 12.500,272.141 12.539,272.060 12.750 C 272.008 12.887,271.822 13.000,271.649 13.000 C 271.204 13.000,271.182 14.455,271.625 14.618 C 271.785 14.677,271.977 14.824,272.050 14.946 C 272.153 15.117,272.925 15.167,275.508 15.167 C 278.353 15.167,278.833 15.203,278.833 15.417 C 278.833 15.554,278.946 15.667,279.083 15.667 C 279.221 15.667,279.333 15.779,279.333 15.917 C 279.333 16.121,279.620 16.167,280.917 16.167 C 282.213 16.167,282.500 16.121,282.500 15.917 C 282.500 15.779,282.615 15.667,282.755 15.667 C 282.896 15.667,283.059 15.535,283.118 15.375 C 283.177 15.215,283.299 15.034,283.390 14.974 C 283.673 14.784,283.734 13.091,283.467 12.822 C 283.337 12.691,283.182 12.452,283.121 12.292 C 283.060 12.131,282.896 12.000,282.755 12.000 C 282.615 12.000,282.500 11.887,282.500 11.750 C 282.500 11.545,282.213 11.500,280.917 11.500 C 279.620 11.500,279.333 11.545,279.333 11.750 M281.667 13.833 C 281.667 14.589,280.470 14.860,280.247 14.156 C 280.190 13.979,280.190 13.688,280.247 13.511 C 280.470 12.806,281.667 13.078,281.667 13.833 M271.698 16.074 C 271.406 16.385,271.325 16.639,271.365 17.118 L 271.417 17.750 273.292 17.797 C 274.807 17.835,275.167 17.891,275.167 18.089 C 275.167 18.223,275.279 18.333,275.417 18.333 C 275.554 18.333,275.667 18.446,275.667 18.583 C 275.667 18.721,275.779 18.833,275.917 18.833 C 276.054 18.833,276.167 18.946,276.167 19.083 C 276.167 19.221,276.279 19.333,276.417 19.333 C 276.554 19.333,276.667 19.399,276.667 19.480 C 276.667 19.560,276.554 19.719,276.417 19.833 C 276.279 19.947,276.167 20.172,276.167 20.333 C 276.167 20.494,276.279 20.719,276.417 20.833 C 276.554 20.947,276.667 21.188,276.667 21.369 C 276.667 22.441,279.701 23.262,280.694 22.458 C 281.495 21.810,281.910 19.147,281.250 18.894 C 281.112 18.841,281.000 18.693,281.000 18.566 C 281.000 18.438,280.896 18.333,280.768 18.333 C 280.640 18.333,280.492 18.221,280.440 18.083 C 280.369 17.899,280.078 17.833,279.333 17.833 C 278.589 17.833,278.298 17.768,278.227 17.583 C 278.174 17.446,278.027 17.333,277.899 17.333 C 277.771 17.333,277.667 17.221,277.667 17.083 C 277.667 16.946,277.563 16.833,277.436 16.833 C 277.309 16.833,277.164 16.676,277.114 16.483 C 277.064 16.291,276.948 16.179,276.857 16.236 C 276.765 16.292,276.645 16.195,276.589 16.019 C 276.412 15.460,272.230 15.507,271.698 16.074 M279.494 19.667 C 279.680 19.667,279.831 20.313,279.715 20.613 C 279.442 21.326,278.037 20.911,278.285 20.191 C 278.420 19.800,278.868 19.478,279.134 19.580 C 279.259 19.628,279.421 19.667,279.494 19.667 M272.500 20.750 C 272.500 20.902,272.345 21.000,272.102 21.000 C 271.812 21.000,271.630 21.157,271.428 21.583 C 271.276 21.904,271.080 22.167,270.992 22.167 C 270.721 22.167,270.800 23.965,271.079 24.121 C 271.214 24.196,271.352 24.444,271.386 24.671 C 271.426 24.932,271.573 25.102,271.790 25.134 C 271.978 25.162,272.264 25.331,272.425 25.509 C 272.901 26.035,275.000 25.945,275.000 25.399 C 275.000 25.271,275.150 25.167,275.333 25.167 C 275.517 25.167,275.667 25.062,275.667 24.934 C 275.667 24.807,275.779 24.659,275.917 24.606 C 276.360 24.436,276.265 21.932,275.797 21.463 C 274.924 20.591,272.500 20.066,272.500 20.750 M274.011 22.506 C 274.464 22.748,274.444 23.596,273.979 23.844 C 273.176 24.275,272.489 23.323,273.109 22.638 C 273.427 22.287,273.565 22.267,274.011 22.506 " stroke="none" fill="#78c1f4" fill-rule="evenodd"></path><path id="path2" d="M266.667 3.250 C 266.667 3.417,266.500 3.500,266.162 3.500 C 265.736 3.500,265.643 3.577,265.558 4.000 C 265.460 4.492,265.442 4.500,264.408 4.500 C 263.767 4.500,263.271 4.585,263.137 4.718 C 263.016 4.837,262.785 4.985,262.625 5.046 C 262.465 5.107,262.333 5.271,262.333 5.411 C 262.333 5.552,262.221 5.667,262.083 5.667 C 261.898 5.667,261.833 5.861,261.833 6.417 C 261.833 7.108,261.800 7.167,261.411 7.167 C 261.179 7.167,260.946 7.279,260.894 7.417 C 260.841 7.554,260.721 7.667,260.626 7.667 C 260.318 7.667,259.667 8.508,259.667 8.907 C 259.667 9.122,259.554 9.341,259.417 9.394 C 259.029 9.542,259.065 11.282,259.458 11.385 C 259.736 11.458,259.736 11.462,259.458 11.481 C 259.298 11.491,259.167 11.612,259.167 11.750 C 259.167 11.887,259.054 12.000,258.917 12.000 C 258.725 12.000,258.667 12.211,258.667 12.896 C 258.667 13.490,258.582 13.863,258.417 14.000 C 258.279 14.114,258.167 14.388,258.167 14.609 C 258.167 14.830,258.279 15.054,258.417 15.106 C 258.586 15.172,258.667 15.437,258.667 15.934 C 258.667 16.474,258.732 16.667,258.917 16.667 C 259.054 16.667,259.167 16.807,259.167 16.980 C 259.167 17.152,259.284 17.390,259.427 17.509 C 259.663 17.705,259.663 17.739,259.427 17.871 C 259.072 18.070,259.063 19.333,259.417 19.333 C 259.606 19.333,259.667 19.537,259.667 20.167 C 259.667 20.796,259.728 21.000,259.917 21.000 C 260.054 21.000,260.167 21.112,260.167 21.250 C 260.167 21.387,260.279 21.500,260.417 21.500 C 260.554 21.500,260.667 21.613,260.667 21.750 C 260.667 21.887,260.808 22.000,260.981 22.000 C 261.154 22.000,261.333 22.149,261.382 22.333 C 261.448 22.589,261.609 22.667,262.068 22.667 C 262.648 22.667,263.333 23.118,263.333 23.500 C 263.333 23.592,263.483 23.667,263.667 23.667 C 263.852 23.667,264.000 23.778,264.000 23.917 C 264.000 24.054,264.112 24.167,264.250 24.167 C 264.387 24.167,264.500 24.279,264.500 24.417 C 264.500 24.789,268.964 24.789,269.106 24.417 C 269.159 24.279,269.288 24.165,269.393 24.164 C 269.669 24.160,270.333 23.415,270.333 23.110 C 270.333 22.967,270.445 22.788,270.581 22.711 C 270.961 22.498,270.969 4.345,270.589 4.067 C 270.448 3.964,270.333 3.794,270.333 3.690 C 270.333 3.585,270.155 3.500,269.937 3.500 C 269.719 3.500,269.447 3.387,269.333 3.250 C 269.183 3.069,268.786 3.000,267.896 3.000 C 266.914 3.000,266.667 3.050,266.667 3.250 M269.150 5.260 C 269.628 6.070,269.702 20.471,269.233 21.605 C 268.254 23.976,265.757 24.027,264.212 21.708 C 264.048 21.463,263.794 21.333,263.478 21.333 C 262.400 21.333,261.184 20.115,260.935 18.787 C 260.872 18.451,260.692 18.103,260.535 18.015 C 259.930 17.673,260.589 17.401,261.254 17.718 C 263.418 18.750,266.167 16.763,266.167 14.166 C 266.167 13.369,265.859 12.862,265.507 13.079 C 265.412 13.138,265.333 13.555,265.333 14.005 C 265.333 15.744,264.112 17.083,262.527 17.083 C 261.942 17.083,261.586 17.008,261.542 16.875 C 261.503 16.760,261.379 16.667,261.265 16.667 C 260.832 16.667,259.833 15.151,259.833 14.493 C 259.833 13.980,260.486 12.716,260.814 12.592 C 260.962 12.536,261.383 12.392,261.750 12.272 C 262.597 11.994,262.589 11.830,261.708 11.421 C 261.045 11.113,261.000 11.050,261.006 10.421 C 261.018 8.974,262.102 8.467,263.192 9.400 C 264.061 10.143,265.231 10.282,265.137 9.631 C 265.099 9.371,264.932 9.232,264.569 9.158 C 263.840 9.010,263.695 8.890,263.406 8.200 C 262.866 6.906,263.939 5.775,265.363 6.136 C 266.151 6.336,266.667 6.163,266.667 5.698 C 266.667 4.527,268.524 4.199,269.150 5.260 " stroke="none" fill="#454d55" fill-rule="evenodd"></path><path id="path3" d="M266.926 5.037 C 266.783 5.241,266.667 5.538,266.667 5.698 C 266.667 6.163,266.151 6.336,265.363 6.136 C 263.939 5.775,262.866 6.906,263.406 8.200 C 263.695 8.890,263.840 9.010,264.569 9.158 C 264.932 9.232,265.099 9.371,265.137 9.631 C 265.231 10.282,264.061 10.143,263.192 9.400 C 262.104 8.468,261.017 8.974,261.006 10.417 C 261.001 11.046,261.042 11.103,261.750 11.431 C 262.239 11.657,262.500 11.710,262.500 11.582 C 262.500 11.474,262.200 11.296,261.833 11.186 C 261.067 10.957,260.964 10.547,261.456 9.689 C 261.884 8.943,262.286 8.918,263.031 9.591 C 263.381 9.908,263.799 10.168,263.959 10.169 C 264.119 10.170,264.408 10.214,264.600 10.265 C 265.050 10.386,265.499 9.948,265.382 9.501 C 265.333 9.314,265.098 9.115,264.855 9.055 C 262.640 8.510,263.194 6.100,265.467 6.394 C 266.401 6.515,266.665 6.376,266.904 5.643 C 267.214 4.688,268.571 4.543,268.971 5.421 C 269.219 5.964,269.249 20.632,269.004 21.486 C 268.466 23.360,265.953 23.687,264.750 22.040 C 264.365 21.511,264.056 21.296,263.401 21.097 C 261.975 20.664,261.167 19.729,261.167 18.511 C 261.167 18.065,261.174 18.063,262.172 18.135 C 264.897 18.332,267.162 15.521,266.232 13.097 C 265.890 12.205,265.000 13.076,265.000 14.303 C 264.999 15.643,263.889 16.833,262.640 16.833 C 260.067 16.833,259.204 13.355,261.590 12.603 C 262.538 12.304,262.899 11.909,261.985 12.171 C 260.632 12.559,259.833 13.421,259.833 14.493 C 259.833 15.151,260.832 16.667,261.265 16.667 C 261.379 16.667,261.503 16.760,261.542 16.875 C 261.586 17.008,261.942 17.083,262.527 17.083 C 264.112 17.083,265.333 15.744,265.333 14.005 C 265.333 13.555,265.412 13.138,265.507 13.079 C 265.859 12.862,266.167 13.369,266.167 14.166 C 266.167 16.763,263.418 18.750,261.254 17.718 C 260.589 17.401,259.930 17.673,260.535 18.015 C 260.692 18.103,260.872 18.451,260.935 18.787 C 261.184 20.115,262.400 21.333,263.478 21.333 C 263.794 21.333,264.048 21.463,264.212 21.708 C 265.757 24.027,268.254 23.976,269.233 21.605 C 269.702 20.471,269.628 6.070,269.150 5.260 C 268.705 4.506,267.390 4.374,266.926 5.037 " stroke="none" fill="#9ca4a4" fill-rule="evenodd"></path><path id="path4" d="M267.167 5.167 C 266.983 5.350,266.833 5.647,266.833 5.827 C 266.833 6.298,266.307 6.513,265.442 6.394 C 263.194 6.086,262.659 8.515,264.855 9.055 C 265.098 9.115,265.333 9.314,265.382 9.501 C 265.499 9.948,265.050 10.386,264.600 10.265 C 264.408 10.214,264.119 10.170,263.959 10.169 C 263.799 10.168,263.381 9.908,263.031 9.591 C 262.286 8.918,261.884 8.943,261.456 9.689 C 260.964 10.547,261.067 10.957,261.833 11.186 C 262.927 11.514,262.806 12.220,261.590 12.603 C 259.204 13.355,260.067 16.833,262.640 16.833 C 263.889 16.833,264.999 15.643,265.000 14.303 C 265.000 13.076,265.890 12.205,266.232 13.097 C 267.162 15.521,264.897 18.332,262.172 18.135 C 261.596 18.093,261.167 18.130,261.167 18.221 C 261.167 18.429,264.170 18.261,264.311 18.045 C 264.369 17.956,264.603 17.785,264.830 17.665 C 266.611 16.726,267.271 12.667,265.643 12.667 C 265.061 12.667,265.017 12.748,264.740 14.337 C 264.407 16.242,263.511 16.933,261.972 16.472 C 260.124 15.918,259.882 12.833,261.687 12.833 C 262.771 12.833,263.065 11.392,262.042 11.091 C 261.447 10.916,261.344 10.526,261.689 9.767 C 261.976 9.137,262.262 9.129,262.867 9.733 C 263.851 10.717,265.667 10.674,265.667 9.667 C 265.667 9.318,265.152 8.833,264.780 8.833 C 263.917 8.833,263.408 7.073,264.156 6.673 C 264.552 6.460,265.499 6.452,265.823 6.657 C 266.199 6.895,267.000 6.405,267.000 5.938 C 267.000 5.192,268.119 4.686,268.633 5.200 C 268.783 5.350,268.833 7.444,268.833 13.599 L 268.833 21.799 268.224 22.334 C 267.214 23.221,265.052 22.840,264.762 21.724 C 264.664 21.347,263.482 20.671,262.906 20.661 C 262.480 20.654,261.668 19.929,261.661 19.550 C 261.653 19.149,261.181 18.316,261.173 18.688 C 261.150 19.708,262.058 20.689,263.401 21.097 C 264.056 21.296,264.365 21.511,264.750 22.040 C 265.953 23.687,268.466 23.360,269.004 21.486 C 269.246 20.642,269.220 5.912,268.975 5.447 C 268.602 4.739,267.730 4.603,267.167 5.167 " stroke="none" fill="#bcbcc4" fill-rule="evenodd"></path></g></svg>